<?xml version="1.0" standalone="no"?>
<!DOCTYPE svg PUBLIC "-//W3C//DTD SVG 20010904//EN"
 "http://www.w3.org/TR/2001/REC-SVG-20010904/DTD/svg10.dtd">
<svg version="1.0" xmlns="http://www.w3.org/2000/svg"
 width="1200.000000pt" height="1200.000000pt" viewBox="0 0 1200.000000 1200.000000"
 preserveAspectRatio="xMidYMid meet">
<metadata>
Created by potrace 1.14, written by Peter Selinger 2001-2017
</metadata>
<g transform="translate(0.000000,1200.000000) scale(0.100000,-0.100000)"
fill="#000000" stroke="none">
<path d="M1095 10547 c-138 -52 -234 -152 -279 -293 -15 -45 -16 -166 -14
-1270 l3 -1220 38 -76 c65 -132 187 -225 328 -247 35 -6 171 -11 302 -11 l237
0 -68 -102 c-338 -507 -536 -1035 -617 -1648 -23 -169 -31 -575 -16 -766 75
-936 441 -1753 1066 -2378 571 -571 1289 -917 2140 -1031 397 -53 991 -39
1500 36 910 133 1729 474 2408 1002 263 205 663 585 640 608 -9 9 -20 7 -45
-8 -18 -11 -91 -56 -163 -100 -752 -461 -1664 -774 -2575 -887 -733 -91 -1424
-67 -1940 65 -1061 273 -1883 1028 -2219 2036 -113 340 -158 655 -148 1037 11
410 90 775 247 1143 136 316 365 663 598 905 l85 88 456 0 c499 0 546 5 643
57 67 36 145 114 181 181 43 80 57 165 57 359 l0 172 43 12 c89 24 267 58 392
75 182 25 588 25 770 0 401 -55 779 -178 1103 -360 566 -318 995 -768 1277
-1341 126 -256 195 -459 259 -756 55 -258 69 -393 70 -654 1 -202 -2 -244 -22
-343 -102 -506 -409 -872 -831 -993 -219 -63 -508 -42 -745 53 -161 64 -351
215 -435 345 l-34 52 -27 -37 c-71 -98 -302 -277 -459 -356 -101 -51 -245
-102 -361 -128 -91 -20 -132 -23 -305 -23 -154 0 -220 4 -285 18 -481 101
-874 407 -1081 841 -59 124 -91 219 -120 356 -31 142 -33 416 -5 565 103 553
509 1014 1041 1180 209 66 226 67 811 72 447 4 545 2 620 -11 223 -38 408
-193 493 -414 l26 -67 6 -660 c7 -740 7 -740 80 -893 91 -189 261 -292 484
-292 202 0 359 102 454 292 97 198 119 418 75 773 -51 411 -222 833 -474 1170
-443 590 -1112 952 -1838 994 -887 51 -1717 -365 -2214 -1109 -80 -120 -210
-378 -263 -523 -90 -246 -135 -490 -142 -777 -11 -397 58 -710 232 -1065 350
-714 1066 -1252 1871 -1409 232 -45 323 -51 754 -51 413 0 538 7 833 46 1530
202 2961 1049 3904 2312 214 286 364 531 532 867 305 611 479 1210 547 1880
21 215 30 726 15 931 -45 619 -179 1125 -427 1621 -33 66 -64 114 -80 125 -45
29 -68 6 -172 -177 -497 -871 -987 -1338 -1742 -1660 -141 -60 -454 -169 -594
-206 l-69 -18 -19 23 c-18 23 -18 24 9 70 187 315 294 554 379 846 69 238 131
606 108 643 -27 42 -51 28 -197 -115 -526 -516 -1163 -826 -1902 -929 -100
-14 -263 -18 -1000 -24 -703 -6 -903 -11 -995 -23 -114 -15 -284 -43 -327 -54
l-23 -5 0 629 c0 413 -4 650 -11 689 -25 138 -117 257 -247 321 l-76 38 -1225
2 -1226 2 -60 -22z m172 -1112 c11 -8 47 -59 79 -112 80 -136 193 -314 213
-337 15 -17 16 -2 21 199 l5 217 28 24 c36 31 78 31 114 0 l28 -24 3 -374 c4
-419 1 -439 -54 -465 -56 -27 -87 -5 -158 113 -107 178 -220 354 -228 354 -5
0 -8 -91 -8 -202 0 -221 -5 -243 -54 -266 -32 -16 -69 -9 -96 18 -19 19 -20
35 -20 418 0 418 0 416 45 440 28 16 57 15 82 -3z m1204 -14 c32 -26 33 -92 1
-123 -21 -22 -31 -23 -203 -26 l-180 -3 3 -97 3 -97 178 -5 c173 -5 179 -6
198 -29 24 -30 24 -82 0 -112 -19 -23 -25 -24 -198 -29 l-178 -5 -3 -82 -3
-83 163 0 c135 0 169 -3 198 -18 43 -21 59 -66 39 -108 -25 -51 -43 -55 -291
-52 -224 3 -227 3 -252 27 l-26 24 0 392 c0 382 1 393 21 419 l20 26 244 0
c223 0 245 -2 266 -19z m279 1 c18 -14 36 -66 79 -217 31 -109 61 -200 67
-202 6 -2 27 51 48 124 72 247 79 267 102 290 30 30 75 30 108 1 19 -18 38
-68 82 -213 56 -185 68 -215 79 -203 3 3 28 93 56 199 41 158 55 198 75 217
47 41 115 21 137 -41 4 -10 -2 -59 -13 -108 -24 -113 -169 -638 -182 -662 -13
-26 -66 -46 -96 -38 -41 11 -57 45 -117 246 -54 180 -68 215 -80 204 -3 -3
-31 -97 -64 -208 -37 -128 -66 -211 -79 -223 -26 -27 -88 -27 -114 0 -12 12
-40 91 -74 208 -68 237 -154 554 -154 570 0 7 12 26 26 43 30 36 79 42 114 13z"/>
<path d="M4440 6150 c-451 -97 -762 -528 -710 -984 44 -386 318 -699 697 -793
107 -27 324 -24 432 5 329 89 570 331 658 659 l26 98 5 490 c4 490 4 490 -18
518 l-21 27 -492 -1 c-438 0 -501 -2 -577 -19z"/>
</g>
</svg>
